# xmcd
#
# Track frame offsets: 
#        150
#        12793
#        26903
#        36154
#        49814
#        62485
#        74693
#        88305
#        103449
#        112993
#        125929
#        138833
#
# Disc length: 2014 seconds
#
# Revision: 0
# Processed by: cddbd v1.5.2PL0 Copyright (c) Steve Scherf et al.
# Submitted via: ExactAudioCopy v1.0b4
#
DISCID=b307dc0c
DTITLE=Mo Al Jaz And Friends - The Blues Of Little Walter 
DYEAR=2017
DGENRE=Blues
TTITLE0=Off The Wall
TTITLE1=Aw'h Baby
TTITLE2=I've Had My Fun
TTITLE3=It Ain't Right
TTITLE4=My Babe
TTITLE5=Last Night
TTITLE6=It's Too Late Brother
TTITLE7=Blues With A Feeling
TTITLE8=Nobody But You
TTITLE9=Tell Me Mama
TTITLE10=Off The Wall (alternate take)
TTITLE11=My Babe (alternate take)
EXTD=
EXTT0=
EXTT1=
EXTT2=
EXTT3=
EXTT4=
EXTT5=
EXTT6=
EXTT7=
EXTT8=
EXTT9=
EXTT10=
EXTT11=
PLAYORDER=
